<mxfile host="app.diagrams.net" modified="2020-06-22T01:55:30.028Z" agent="5.0 (Macintosh; Intel Mac OS X 10_14_6) AppleWebKit/537.36 (KHTML, like Gecko) Chrome/83.0.4103.97 Safari/537.36" etag="NIOLjAkfWxbjrGlcdzJP" version="13.3.0" type="github" pages="3">
  <diagram id="8ww4kMy-OGokvhHyVhnX" name="Page-1">
    <mxGraphModel dx="946" dy="543" grid="1" gridSize="10" guides="1" tooltips="1" connect="1" arrows="1" fold="1" page="1" pageScale="1" pageWidth="827" pageHeight="1169" math="0" shadow="0">
      <root>
        <mxCell id="0" />
        <mxCell id="1" parent="0" />
        <mxCell id="M42jQ0rT6yA7p7nZOS12-2" value="开始" style="strokeWidth=2;html=1;shape=mxgraph.flowchart.terminator;whiteSpace=wrap;" parent="1" vertex="1">
          <mxGeometry x="60" y="102" width="100" height="40" as="geometry" />
        </mxCell>
        <mxCell id="M42jQ0rT6yA7p7nZOS12-65" style="edgeStyle=orthogonalEdgeStyle;rounded=0;orthogonalLoop=1;jettySize=auto;html=1;exitX=0.5;exitY=0;exitDx=0;exitDy=0;entryX=0.5;entryY=0;entryDx=0;entryDy=0;startSize=5;endSize=2;" parent="1" edge="1">
          <mxGeometry relative="1" as="geometry">
            <Array as="points">
              <mxPoint x="464" y="50" />
              <mxPoint x="810" y="50" />
            </Array>
            <mxPoint x="466.5" y="100" as="sourcePoint" />
          </mxGeometry>
        </mxCell>
        <mxCell id="OxR8u_R1TsU7xB-B9-50-8" value="" style="edgeStyle=orthogonalEdgeStyle;rounded=0;orthogonalLoop=1;jettySize=auto;html=1;" parent="1" target="OxR8u_R1TsU7xB-B9-50-7" edge="1">
          <mxGeometry relative="1" as="geometry">
            <mxPoint x="110" y="150" as="sourcePoint" />
          </mxGeometry>
        </mxCell>
        <mxCell id="OxR8u_R1TsU7xB-B9-50-10" value="" style="edgeStyle=orthogonalEdgeStyle;rounded=0;orthogonalLoop=1;jettySize=auto;html=1;" parent="1" source="OxR8u_R1TsU7xB-B9-50-7" target="OxR8u_R1TsU7xB-B9-50-9" edge="1">
          <mxGeometry relative="1" as="geometry" />
        </mxCell>
        <mxCell id="OxR8u_R1TsU7xB-B9-50-7" value="获取可用字段（全部系统+未使用的自定义字段）" style="rounded=1;whiteSpace=wrap;html=1;" parent="1" vertex="1">
          <mxGeometry x="55" y="230" width="110" height="70" as="geometry" />
        </mxCell>
        <mxCell id="pND4i8yrlHbNQ3pa0ol_-3" value="" style="edgeStyle=orthogonalEdgeStyle;rounded=0;orthogonalLoop=1;jettySize=auto;html=1;" parent="1" source="OxR8u_R1TsU7xB-B9-50-9" target="pND4i8yrlHbNQ3pa0ol_-2" edge="1">
          <mxGeometry relative="1" as="geometry" />
        </mxCell>
        <mxCell id="OxR8u_R1TsU7xB-B9-50-9" value="校验field_key是否合法，是否当前项目字段" style="rounded=1;whiteSpace=wrap;html=1;" parent="1" vertex="1">
          <mxGeometry x="55" y="364" width="110" height="42" as="geometry" />
        </mxCell>
        <mxCell id="pND4i8yrlHbNQ3pa0ol_-5" value="" style="edgeStyle=orthogonalEdgeStyle;rounded=0;orthogonalLoop=1;jettySize=auto;html=1;" parent="1" source="pND4i8yrlHbNQ3pa0ol_-2" target="pND4i8yrlHbNQ3pa0ol_-4" edge="1">
          <mxGeometry relative="1" as="geometry" />
        </mxCell>
        <mxCell id="pND4i8yrlHbNQ3pa0ol_-2" value="构造FieldRelList，批量插入" style="rounded=1;whiteSpace=wrap;html=1;" parent="1" vertex="1">
          <mxGeometry x="245" y="357" width="110" height="56" as="geometry" />
        </mxCell>
        <mxCell id="ZPGcMv7oUMxm7xbSEC-z-1" value="" style="edgeStyle=orthogonalEdgeStyle;rounded=0;orthogonalLoop=1;jettySize=auto;html=1;" edge="1" parent="1" source="pND4i8yrlHbNQ3pa0ol_-4" target="pND4i8yrlHbNQ3pa0ol_-26">
          <mxGeometry relative="1" as="geometry" />
        </mxCell>
        <mxCell id="pND4i8yrlHbNQ3pa0ol_-4" value="同步该任务类型下全部task到es" style="rounded=1;whiteSpace=wrap;html=1;" parent="1" vertex="1">
          <mxGeometry x="245" y="230" width="110" height="70" as="geometry" />
        </mxCell>
        <mxCell id="pND4i8yrlHbNQ3pa0ol_-11" value="" style="edgeStyle=orthogonalEdgeStyle;rounded=0;orthogonalLoop=1;jettySize=auto;html=1;" parent="1" target="pND4i8yrlHbNQ3pa0ol_-10" edge="1">
          <mxGeometry relative="1" as="geometry">
            <mxPoint x="355" y="122" as="sourcePoint" />
          </mxGeometry>
        </mxCell>
        <mxCell id="pND4i8yrlHbNQ3pa0ol_-34" value="" style="edgeStyle=orthogonalEdgeStyle;rounded=0;orthogonalLoop=1;jettySize=auto;html=1;" parent="1" target="pND4i8yrlHbNQ3pa0ol_-33" edge="1">
          <mxGeometry relative="1" as="geometry">
            <mxPoint x="490" y="150" as="sourcePoint" />
          </mxGeometry>
        </mxCell>
        <mxCell id="pND4i8yrlHbNQ3pa0ol_-15" value="&lt;h2&gt;任务分类批量启用字段&lt;/h2&gt;" style="text;html=1;align=center;verticalAlign=middle;resizable=0;points=[];autosize=1;" parent="1" vertex="1">
          <mxGeometry x="126" y="32" width="170" height="50" as="geometry" />
        </mxCell>
        <mxCell id="pND4i8yrlHbNQ3pa0ol_-26" value="结束" style="strokeWidth=2;html=1;shape=mxgraph.flowchart.terminator;whiteSpace=wrap;" parent="1" vertex="1">
          <mxGeometry x="430" y="245" width="100" height="40" as="geometry" />
        </mxCell>
      </root>
    </mxGraphModel>
  </diagram>
  <diagram id="x5WwQ41c907MMuJBFhl2" name="第 2 页">
    <mxGraphModel dx="946" dy="543" grid="1" gridSize="10" guides="1" tooltips="1" connect="1" arrows="1" fold="1" page="1" pageScale="1" pageWidth="827" pageHeight="1169" math="0" shadow="0">
      <root>
        <mxCell id="gtI7pecNNH2SfoeVNV7F-0" />
        <mxCell id="gtI7pecNNH2SfoeVNV7F-1" parent="gtI7pecNNH2SfoeVNV7F-0" />
        <mxCell id="gtI7pecNNH2SfoeVNV7F-2" value="开始" style="strokeWidth=2;html=1;shape=mxgraph.flowchart.terminator;whiteSpace=wrap;" parent="gtI7pecNNH2SfoeVNV7F-1" vertex="1">
          <mxGeometry x="60" y="102" width="100" height="40" as="geometry" />
        </mxCell>
        <mxCell id="gtI7pecNNH2SfoeVNV7F-3" value="" style="edgeStyle=orthogonalEdgeStyle;rounded=0;orthogonalLoop=1;jettySize=auto;html=1;" parent="gtI7pecNNH2SfoeVNV7F-1" target="gtI7pecNNH2SfoeVNV7F-5" edge="1">
          <mxGeometry relative="1" as="geometry">
            <mxPoint x="110" y="150" as="sourcePoint" />
          </mxGeometry>
        </mxCell>
        <mxCell id="gtI7pecNNH2SfoeVNV7F-4" value="" style="edgeStyle=orthogonalEdgeStyle;rounded=0;orthogonalLoop=1;jettySize=auto;html=1;" parent="gtI7pecNNH2SfoeVNV7F-1" source="gtI7pecNNH2SfoeVNV7F-5" target="gtI7pecNNH2SfoeVNV7F-7" edge="1">
          <mxGeometry relative="1" as="geometry" />
        </mxCell>
        <mxCell id="gtI7pecNNH2SfoeVNV7F-5" value="校验项目、字段名称、字段item非空合法等" style="rounded=1;whiteSpace=wrap;html=1;" parent="gtI7pecNNH2SfoeVNV7F-1" vertex="1">
          <mxGeometry x="55" y="230" width="110" height="70" as="geometry" />
        </mxCell>
        <mxCell id="gtI7pecNNH2SfoeVNV7F-6" value="" style="edgeStyle=orthogonalEdgeStyle;rounded=0;orthogonalLoop=1;jettySize=auto;html=1;" parent="gtI7pecNNH2SfoeVNV7F-1" source="gtI7pecNNH2SfoeVNV7F-7" target="gtI7pecNNH2SfoeVNV7F-9" edge="1">
          <mxGeometry relative="1" as="geometry" />
        </mxCell>
        <mxCell id="gtI7pecNNH2SfoeVNV7F-7" value="构造FieldDef，FieldItemList等信息" style="rounded=1;whiteSpace=wrap;html=1;" parent="gtI7pecNNH2SfoeVNV7F-1" vertex="1">
          <mxGeometry x="55" y="364" width="110" height="42" as="geometry" />
        </mxCell>
        <mxCell id="gtI7pecNNH2SfoeVNV7F-8" value="" style="edgeStyle=orthogonalEdgeStyle;rounded=0;orthogonalLoop=1;jettySize=auto;html=1;" parent="gtI7pecNNH2SfoeVNV7F-1" source="gtI7pecNNH2SfoeVNV7F-9" target="gtI7pecNNH2SfoeVNV7F-11" edge="1">
          <mxGeometry relative="1" as="geometry" />
        </mxCell>
        <mxCell id="gtI7pecNNH2SfoeVNV7F-9" value="新建项目自定义字段（insert fieldDef）" style="rounded=1;whiteSpace=wrap;html=1;" parent="gtI7pecNNH2SfoeVNV7F-1" vertex="1">
          <mxGeometry x="245" y="357" width="110" height="56" as="geometry" />
        </mxCell>
        <mxCell id="gtI7pecNNH2SfoeVNV7F-10" style="edgeStyle=orthogonalEdgeStyle;rounded=0;orthogonalLoop=1;jettySize=auto;html=1;exitX=1;exitY=0.5;exitDx=0;exitDy=0;" parent="gtI7pecNNH2SfoeVNV7F-1" source="gtI7pecNNH2SfoeVNV7F-11" target="gtI7pecNNH2SfoeVNV7F-13" edge="1">
          <mxGeometry relative="1" as="geometry" />
        </mxCell>
        <mxCell id="gtI7pecNNH2SfoeVNV7F-11" value="新建fieldItems(fieldKey关联)" style="rounded=1;whiteSpace=wrap;html=1;" parent="gtI7pecNNH2SfoeVNV7F-1" vertex="1">
          <mxGeometry x="245" y="230" width="110" height="70" as="geometry" />
        </mxCell>
        <mxCell id="gtI7pecNNH2SfoeVNV7F-12" value="&lt;h2&gt;新建项目自定义字段&lt;/h2&gt;" style="text;html=1;align=center;verticalAlign=middle;resizable=0;points=[];autosize=1;" parent="gtI7pecNNH2SfoeVNV7F-1" vertex="1">
          <mxGeometry x="121" y="32" width="180" height="50" as="geometry" />
        </mxCell>
        <mxCell id="gtI7pecNNH2SfoeVNV7F-13" value="结束" style="strokeWidth=2;html=1;shape=mxgraph.flowchart.terminator;whiteSpace=wrap;" parent="gtI7pecNNH2SfoeVNV7F-1" vertex="1">
          <mxGeometry x="440" y="245" width="100" height="40" as="geometry" />
        </mxCell>
      </root>
    </mxGraphModel>
  </diagram>
  <diagram id="Gq-j-CIZzpVMhEtyVBeZ" name="第 3 页">
    <mxGraphModel dx="946" dy="543" grid="1" gridSize="10" guides="1" tooltips="1" connect="1" arrows="1" fold="1" page="1" pageScale="1" pageWidth="827" pageHeight="1169" math="0" shadow="0">
      <root>
        <mxCell id="tEReUP_SssDiK9otTzJF-0" />
        <mxCell id="tEReUP_SssDiK9otTzJF-1" parent="tEReUP_SssDiK9otTzJF-0" />
      </root>
    </mxGraphModel>
  </diagram>
</mxfile>
